<?xml version="1.0" encoding="utf-8" standalone="no"?>
<!DOCTYPE svg PUBLIC "-//W3C//DTD SVG 1.1//EN"
  "http://www.w3.org/Graphics/SVG/1.1/DTD/svg11.dtd">
<svg xmlns:xlink="http://www.w3.org/1999/xlink" width="851.4pt" height="583.918125pt" viewBox="0 0 851.4 583.918125" xmlns="http://www.w3.org/2000/svg" version="1.1">
 <metadata>
  <rdf:RDF xmlns:dc="http://purl.org/dc/elements/1.1/" xmlns:cc="http://creativecommons.org/ns#" xmlns:rdf="http://www.w3.org/1999/02/22-rdf-syntax-ns#">
   <cc:Work>
    <dc:type rdf:resource="http://purl.org/dc/dcmitype/StillImage"/>
    <dc:date>2025-11-08T21:23:23.675734</dc:date>
    <dc:format>image/svg+xml</dc:format>
    <dc:creator>
     <cc:Agent>
      <dc:title>Matplotlib v3.10.7, https://matplotlib.org/</dc:title>
     </cc:Agent>
    </dc:creator>
   </cc:Work>
  </rdf:RDF>
 </metadata>
 <defs>
  <style type="text/css">*{stroke-linejoin: round; stroke-linecap: butt}</style>
 </defs>
 <g id="figure_1">
  <g id="patch_1">
   <path d="M 0 583.918125 
L 851.4 583.918125 
L 851.4 0 
L 0 0 
z
" style="fill: #ffffff"/>
  </g>
  <g id="axes_1">
   <g id="LineCollection_1">
    <path d="M 630.962147 167.993408 
L 517.129146 280.233546 
" clip-path="url(#p7261e925cc)" style="fill: none; stroke: #000000; stroke-opacity: 0.5; stroke-width: 1.175439"/>
    <path d="M 630.962147 167.993408 
L 480.32096 266.357991 
" clip-path="url(#p7261e925cc)" style="fill: none; stroke: #000000; stroke-opacity: 0.5; stroke-width: 1.087719"/>
    <path d="M 630.962147 167.993408 
L 590.009251 286.164763 
" clip-path="url(#p7261e925cc)" style="fill: none; stroke: #000000; stroke-opacity: 0.5; stroke-width: 1.087719"/>
    <path d="M 630.962147 167.993408 
L 564.33123 272.313496 
" clip-path="url(#p7261e925cc)" style="fill: none; stroke: #000000; stroke-opacity: 0.5; stroke-width: 1.087719"/>
    <path d="M 468.626228 202.092187 
L 517.129146 280.233546 
" clip-path="url(#p7261e925cc)" style="fill: none; stroke: #000000; stroke-opacity: 0.5; stroke-width: 2.140351"/>
    <path d="M 468.626228 202.092187 
L 480.32096 266.357991 
" clip-path="url(#p7261e925cc)" style="fill: none; stroke: #000000; stroke-opacity: 0.5; stroke-width: 1.263158"/>
    <path d="M 468.626228 202.092187 
L 365.703217 91.09121 
" clip-path="url(#p7261e925cc)" style="fill: none; stroke: #000000; stroke-opacity: 0.5; stroke-width: 1.350877"/>
    <path d="M 468.626228 202.092187 
L 467.375697 331.57834 
" clip-path="url(#p7261e925cc)" style="fill: none; stroke: #000000; stroke-opacity: 0.5; stroke-width: 1.087719"/>
    <path d="M 468.626228 202.092187 
L 590.009251 286.164763 
" clip-path="url(#p7261e925cc)" style="fill: none; stroke: #000000; stroke-opacity: 0.5; stroke-width: 1.175439"/>
    <path d="M 483.459505 445.564188 
L 446.724965 316.68121 
" clip-path="url(#p7261e925cc)" style="fill: none; stroke: #000000; stroke-opacity: 0.5; stroke-width: 1.087719"/>
    <path d="M 483.459505 445.564188 
L 531.985419 318.264542 
" clip-path="url(#p7261e925cc)" style="fill: none; stroke: #000000; stroke-opacity: 0.5; stroke-width: 1.087719"/>
    <path d="M 483.459505 445.564188 
L 590.009251 286.164763 
" clip-path="url(#p7261e925cc)" style="fill: none; stroke: #000000; stroke-opacity: 0.5; stroke-width: 1.087719"/>
    <path d="M 225.07794 408.333312 
L 564.33123 272.313496 
" clip-path="url(#p7261e925cc)" style="fill: none; stroke: #000000; stroke-opacity: 0.5; stroke-width: 1.087719"/>
    <path d="M 225.07794 408.333312 
L 446.724965 316.68121 
" clip-path="url(#p7261e925cc)" style="fill: none; stroke: #000000; stroke-opacity: 0.5; stroke-width: 1.087719"/>
    <path d="M 446.724965 316.68121 
L 480.32096 266.357991 
" clip-path="url(#p7261e925cc)" style="fill: none; stroke: #000000; stroke-opacity: 0.5; stroke-width: 1.175439"/>
    <path d="M 446.724965 316.68121 
L 590.009251 286.164763 
" clip-path="url(#p7261e925cc)" style="fill: none; stroke: #000000; stroke-opacity: 0.5; stroke-width: 1.263158"/>
    <path d="M 446.724965 316.68121 
L 531.985419 318.264542 
" clip-path="url(#p7261e925cc)" style="fill: none; stroke: #000000; stroke-opacity: 0.5; stroke-width: 3.631579"/>
    <path d="M 446.724965 316.68121 
L 467.375697 331.57834 
" clip-path="url(#p7261e925cc)" style="fill: none; stroke: #000000; stroke-opacity: 0.5; stroke-width: 3.894737"/>
    <path d="M 446.724965 316.68121 
L 517.129146 280.233546 
" clip-path="url(#p7261e925cc)" style="fill: none; stroke: #000000; stroke-opacity: 0.5; stroke-width: 2.666667"/>
    <path d="M 446.724965 316.68121 
L 294.695582 282.533312 
" clip-path="url(#p7261e925cc)" style="fill: none; stroke: #000000; stroke-opacity: 0.5; stroke-width: 1.087719"/>
    <path d="M 446.724965 316.68121 
L 79.832231 334.167074 
" clip-path="url(#p7261e925cc)" style="fill: none; stroke: #000000; stroke-opacity: 0.5; stroke-width: 1.087719"/>
    <path d="M 446.724965 316.68121 
L 417.465237 297.822506 
" clip-path="url(#p7261e925cc)" style="fill: none; stroke: #000000; stroke-opacity: 0.5; stroke-width: 2.666667"/>
    <path d="M 446.724965 316.68121 
L 564.33123 272.313496 
" clip-path="url(#p7261e925cc)" style="fill: none; stroke: #000000; stroke-opacity: 0.5; stroke-width: 1.263158"/>
    <path d="M 446.724965 316.68121 
L 517.245035 349.347247 
" clip-path="url(#p7261e925cc)" style="fill: none; stroke: #000000; stroke-opacity: 0.5; stroke-width: 1.087719"/>
    <path d="M 590.009251 286.164763 
L 517.129146 280.233546 
" clip-path="url(#p7261e925cc)" style="fill: none; stroke: #000000; stroke-opacity: 0.5; stroke-width: 5.561404"/>
    <path d="M 590.009251 286.164763 
L 480.32096 266.357991 
" clip-path="url(#p7261e925cc)" style="fill: none; stroke: #000000; stroke-opacity: 0.5; stroke-width: 1.701754"/>
    <path d="M 590.009251 286.164763 
L 531.985419 318.264542 
" clip-path="url(#p7261e925cc)" style="fill: none; stroke: #000000; stroke-opacity: 0.5; stroke-width: 1.175439"/>
    <path d="M 590.009251 286.164763 
L 517.245035 349.347247 
" clip-path="url(#p7261e925cc)" style="fill: none; stroke: #000000; stroke-opacity: 0.5; stroke-width: 1.087719"/>
    <path d="M 590.009251 286.164763 
L 417.465237 297.822506 
" clip-path="url(#p7261e925cc)" style="fill: none; stroke: #000000; stroke-opacity: 0.5; stroke-width: 1.087719"/>
    <path d="M 590.009251 286.164763 
L 564.33123 272.313496 
" clip-path="url(#p7261e925cc)" style="fill: none; stroke: #000000; stroke-opacity: 0.5; stroke-width: 1.438596"/>
    <path d="M 374.928535 529.593034 
L 517.245035 349.347247 
" clip-path="url(#p7261e925cc)" style="fill: none; stroke: #000000; stroke-opacity: 0.5; stroke-width: 1.087719"/>
    <path d="M 467.375697 331.57834 
L 771.567769 348.625258 
" clip-path="url(#p7261e925cc)" style="fill: none; stroke: #000000; stroke-opacity: 0.5; stroke-width: 1.175439"/>
    <path d="M 467.375697 331.57834 
L 531.985419 318.264542 
" clip-path="url(#p7261e925cc)" style="fill: none; stroke: #000000; stroke-opacity: 0.5; stroke-width: 1.350877"/>
    <path d="M 467.375697 331.57834 
L 564.33123 272.313496 
" clip-path="url(#p7261e925cc)" style="fill: none; stroke: #000000; stroke-opacity: 0.5; stroke-width: 1.263158"/>
    <path d="M 467.375697 331.57834 
L 294.695582 282.533312 
" clip-path="url(#p7261e925cc)" style="fill: none; stroke: #000000; stroke-opacity: 0.5; stroke-width: 1.175439"/>
    <path d="M 467.375697 331.57834 
L 480.32096 266.357991 
" clip-path="url(#p7261e925cc)" style="fill: none; stroke: #000000; stroke-opacity: 0.5; stroke-width: 1.087719"/>
    <path d="M 467.375697 331.57834 
L 517.245035 349.347247 
" clip-path="url(#p7261e925cc)" style="fill: none; stroke: #000000; stroke-opacity: 0.5; stroke-width: 1.964912"/>
    <path d="M 467.375697 331.57834 
L 517.129146 280.233546 
" clip-path="url(#p7261e925cc)" style="fill: none; stroke: #000000; stroke-opacity: 0.5; stroke-width: 1.789474"/>
    <path d="M 467.375697 331.57834 
L 79.832231 334.167074 
" clip-path="url(#p7261e925cc)" style="fill: none; stroke: #000000; stroke-opacity: 0.5; stroke-width: 1.087719"/>
    <path d="M 467.375697 331.57834 
L 417.465237 297.822506 
" clip-path="url(#p7261e925cc)" style="fill: none; stroke: #000000; stroke-opacity: 0.5; stroke-width: 2.403509"/>
    <path d="M 480.32096 266.357991 
L 517.129146 280.233546 
" clip-path="url(#p7261e925cc)" style="fill: none; stroke: #000000; stroke-opacity: 0.5; stroke-width: 3.45614"/>
    <path d="M 480.32096 266.357991 
L 564.33123 272.313496 
" clip-path="url(#p7261e925cc)" style="fill: none; stroke: #000000; stroke-opacity: 0.5; stroke-width: 1.087719"/>
    <path d="M 480.32096 266.357991 
L 417.465237 297.822506 
" clip-path="url(#p7261e925cc)" style="fill: none; stroke: #000000; stroke-opacity: 0.5; stroke-width: 1.614035"/>
    <path d="M 480.32096 266.357991 
L 517.245035 349.347247 
" clip-path="url(#p7261e925cc)" style="fill: none; stroke: #000000; stroke-opacity: 0.5; stroke-width: 1.789474"/>
    <path d="M 480.32096 266.357991 
L 294.695582 282.533312 
" clip-path="url(#p7261e925cc)" style="fill: none; stroke: #000000; stroke-opacity: 0.5; stroke-width: 1.087719"/>
    <path d="M 480.32096 266.357991 
L 531.985419 318.264542 
" clip-path="url(#p7261e925cc)" style="fill: none; stroke: #000000; stroke-opacity: 0.5; stroke-width: 1.263158"/>
    <path d="M 771.567769 348.625258 
L 531.985419 318.264542 
" clip-path="url(#p7261e925cc)" style="fill: none; stroke: #000000; stroke-opacity: 0.5; stroke-width: 1.175439"/>
    <path d="M 771.567769 348.625258 
L 564.33123 272.313496 
" clip-path="url(#p7261e925cc)" style="fill: none; stroke: #000000; stroke-opacity: 0.5; stroke-width: 1.087719"/>
    <path d="M 294.695582 282.533312 
L 531.985419 318.264542 
" clip-path="url(#p7261e925cc)" style="fill: none; stroke: #000000; stroke-opacity: 0.5; stroke-width: 1.175439"/>
    <path d="M 294.695582 282.533312 
L 517.129146 280.233546 
" clip-path="url(#p7261e925cc)" style="fill: none; stroke: #000000; stroke-opacity: 0.5; stroke-width: 1.175439"/>
    <path d="M 294.695582 282.533312 
L 417.465237 297.822506 
" clip-path="url(#p7261e925cc)" style="fill: none; stroke: #000000; stroke-opacity: 0.5; stroke-width: 1.087719"/>
    <path d="M 517.245035 349.347247 
L 517.129146 280.233546 
" clip-path="url(#p7261e925cc)" style="fill: none; stroke: #000000; stroke-opacity: 0.5; stroke-width: 1.614035"/>
    <path d="M 517.245035 349.347247 
L 417.465237 297.822506 
" clip-path="url(#p7261e925cc)" style="fill: none; stroke: #000000; stroke-opacity: 0.5; stroke-width: 1.438596"/>
    <path d="M 517.245035 349.347247 
L 531.985419 318.264542 
" clip-path="url(#p7261e925cc)" style="fill: none; stroke: #000000; stroke-opacity: 0.5; stroke-width: 1.438596"/>
    <path d="M 517.245035 349.347247 
L 564.33123 272.313496 
" clip-path="url(#p7261e925cc)" style="fill: none; stroke: #000000; stroke-opacity: 0.5; stroke-width: 1.175439"/>
    <path d="M 531.985419 318.264542 
L 564.33123 272.313496 
" clip-path="url(#p7261e925cc)" style="fill: none; stroke: #000000; stroke-opacity: 0.5; stroke-width: 1.350877"/>
    <path d="M 531.985419 318.264542 
L 517.129146 280.233546 
" clip-path="url(#p7261e925cc)" style="fill: none; stroke: #000000; stroke-opacity: 0.5; stroke-width: 3.280702"/>
    <path d="M 531.985419 318.264542 
L 417.465237 297.822506 
" clip-path="url(#p7261e925cc)" style="fill: none; stroke: #000000; stroke-opacity: 0.5; stroke-width: 1.175439"/>
    <path d="M 417.465237 297.822506 
L 517.129146 280.233546 
" clip-path="url(#p7261e925cc)" style="fill: none; stroke: #000000; stroke-opacity: 0.5; stroke-width: 2.22807"/>
    <path d="M 564.33123 272.313496 
L 517.129146 280.233546 
" clip-path="url(#p7261e925cc)" style="fill: none; stroke: #000000; stroke-opacity: 0.5; stroke-width: 6"/>
   </g>
   <g id="PathCollection_1">
    <path d="M 630.962147 175.064476 
C 632.837416 175.064476 634.636131 174.319424 635.962147 172.993408 
C 637.288162 171.667393 638.033215 169.868677 638.033215 167.993408 
C 638.033215 166.118139 637.288162 164.319424 635.962147 162.993408 
C 634.636131 161.667393 632.837416 160.922341 630.962147 160.922341 
C 629.086878 160.922341 627.288162 161.667393 625.962147 162.993408 
C 624.636131 164.319424 623.891079 166.118139 623.891079 167.993408 
C 623.891079 169.868677 624.636131 171.667393 625.962147 172.993408 
C 627.288162 174.319424 629.086878 175.064476 630.962147 175.064476 
z
" clip-path="url(#p7261e925cc)" style="fill: #add8e6; fill-opacity: 0.7; stroke: #add8e6; stroke-opacity: 0.7"/>
    <path d="M 468.626228 213.924346 
C 471.764153 213.924346 474.77398 212.677635 476.992828 210.458787 
C 479.211676 208.239939 480.458387 205.230112 480.458387 202.092187 
C 480.458387 198.954262 479.211676 195.944435 476.992828 193.725587 
C 474.77398 191.506738 471.764153 190.260027 468.626228 190.260027 
C 465.488302 190.260027 462.478476 191.506738 460.259628 193.725587 
C 458.040779 195.944435 456.794068 198.954262 456.794068 202.092187 
C 456.794068 205.230112 458.040779 208.239939 460.259628 210.458787 
C 462.478476 212.677635 465.488302 213.924346 468.626228 213.924346 
z
" clip-path="url(#p7261e925cc)" style="fill: #add8e6; fill-opacity: 0.7; stroke: #add8e6; stroke-opacity: 0.7"/>
    <path d="M 365.703217 97.799413 
C 367.482253 97.799413 369.188665 97.092595 370.446633 95.834626 
C 371.704602 94.576657 372.411421 92.870246 372.411421 91.09121 
C 372.411421 89.312173 371.704602 87.605762 370.446633 86.347793 
C 369.188665 85.089824 367.482253 84.383006 365.703217 84.383006 
C 363.92418 84.383006 362.217769 85.089824 360.9598 86.347793 
C 359.701832 87.605762 358.995013 89.312173 358.995013 91.09121 
C 358.995013 92.870246 359.701832 94.576657 360.9598 95.834626 
C 362.217769 97.092595 363.92418 97.799413 365.703217 97.799413 
z
" clip-path="url(#p7261e925cc)" style="fill: #add8e6; fill-opacity: 0.7; stroke: #add8e6; stroke-opacity: 0.7"/>
    <path d="M 483.459505 451.888743 
C 485.136796 451.888743 486.745616 451.222348 487.931641 450.036324 
C 489.117665 448.850299 489.78406 447.241479 489.78406 445.564188 
C 489.78406 443.886896 489.117665 442.278076 487.931641 441.092052 
C 486.745616 439.906027 485.136796 439.239632 483.459505 439.239632 
C 481.782213 439.239632 480.173393 439.906027 478.987369 441.092052 
C 477.801345 442.278076 477.134949 443.886896 477.134949 445.564188 
C 477.134949 447.241479 477.801345 448.850299 478.987369 450.036324 
C 480.173393 451.222348 481.782213 451.888743 483.459505 451.888743 
z
" clip-path="url(#p7261e925cc)" style="fill: #add8e6; fill-opacity: 0.7; stroke: #add8e6; stroke-opacity: 0.7"/>
    <path d="M 589.854002 52.518125 
C 591.180018 52.518125 592.451902 51.991293 593.389536 51.053659 
C 594.327171 50.116024 594.854002 48.844141 594.854002 47.518125 
C 594.854002 46.19211 594.327171 44.920226 593.389536 43.982591 
C 592.451902 43.044957 591.180018 42.518125 589.854002 42.518125 
C 588.527987 42.518125 587.256103 43.044957 586.318468 43.982591 
C 585.380834 44.920226 584.854002 46.19211 584.854002 47.518125 
C 584.854002 48.844141 585.380834 50.116024 586.318468 51.053659 
C 587.256103 51.991293 588.527987 52.518125 589.854002 52.518125 
z
" clip-path="url(#p7261e925cc)" style="fill: #add8e6; fill-opacity: 0.7; stroke: #add8e6; stroke-opacity: 0.7"/>
    <path d="M 225.07794 414.249392 
C 226.646902 414.249392 228.151816 413.626036 229.26124 412.516612 
C 230.370664 411.407188 230.99402 409.902275 230.99402 408.333312 
C 230.99402 406.764349 230.370664 405.259436 229.26124 404.150012 
C 228.151816 403.040588 226.646902 402.417232 225.07794 402.417232 
C 223.508977 402.417232 222.004064 403.040588 220.89464 404.150012 
C 219.785215 405.259436 219.16186 406.764349 219.16186 408.333312 
C 219.16186 409.902275 219.785215 411.407188 220.89464 412.516612 
C 222.004064 413.626036 223.508977 414.249392 225.07794 414.249392 
z
" clip-path="url(#p7261e925cc)" style="fill: #add8e6; fill-opacity: 0.7; stroke: #add8e6; stroke-opacity: 0.7"/>
    <path d="M 446.724965 341.073831 
C 453.193964 341.073831 459.39888 338.503671 463.973153 333.929398 
C 468.547426 329.355125 471.117586 323.150208 471.117586 316.68121 
C 471.117586 310.212211 468.547426 304.007294 463.973153 299.433021 
C 459.39888 294.858748 453.193964 292.288588 446.724965 292.288588 
C 440.255966 292.288588 434.051049 294.858748 429.476776 299.433021 
C 424.902503 304.007294 422.332343 310.212211 422.332343 316.68121 
C 422.332343 323.150208 424.902503 329.355125 429.476776 333.929398 
C 434.051049 338.503671 440.255966 341.073831 446.724965 341.073831 
z
" clip-path="url(#p7261e925cc)" style="fill: #add8e6; fill-opacity: 0.7; stroke: #add8e6; stroke-opacity: 0.7"/>
    <path d="M 590.009251 306.289375 
C 595.34636 306.289375 600.465594 304.168919 604.2395 300.395013 
C 608.013407 296.621106 610.133863 291.501873 610.133863 286.164763 
C 610.133863 280.827654 608.013407 275.70842 604.2395 271.934514 
C 600.465594 268.160607 595.34636 266.040151 590.009251 266.040151 
C 584.672141 266.040151 579.552908 268.160607 575.779001 271.934514 
C 572.005095 275.70842 569.884639 280.827654 569.884639 286.164763 
C 569.884639 291.501873 572.005095 296.621106 575.779001 300.395013 
C 579.552908 304.168919 584.672141 306.289375 590.009251 306.289375 
z
" clip-path="url(#p7261e925cc)" style="fill: #add8e6; fill-opacity: 0.7; stroke: #add8e6; stroke-opacity: 0.7"/>
    <path d="M 374.928535 535.070259 
C 376.381113 535.070259 377.774392 534.493144 378.801519 533.466017 
C 379.828646 532.43889 380.405761 531.045611 380.405761 529.593034 
C 380.405761 528.140457 379.828646 526.747178 378.801519 525.72005 
C 377.774392 524.692923 376.381113 524.115808 374.928535 524.115808 
C 373.475958 524.115808 372.082679 524.692923 371.055552 525.72005 
C 370.028425 526.747178 369.45131 528.140457 369.45131 529.593034 
C 369.45131 531.045611 370.028425 532.43889 371.055552 533.466017 
C 372.082679 534.493144 373.475958 535.070259 374.928535 535.070259 
z
" clip-path="url(#p7261e925cc)" style="fill: #add8e6; fill-opacity: 0.7; stroke: #add8e6; stroke-opacity: 0.7"/>
    <path d="M 467.375697 352.554517 
C 472.938644 352.554517 478.274497 350.344335 482.208094 346.410737 
C 486.141692 342.477139 488.351874 337.141287 488.351874 331.57834 
C 488.351874 326.015393 486.141692 320.679541 482.208094 316.745943 
C 478.274497 312.812345 472.938644 310.602163 467.375697 310.602163 
C 461.81275 310.602163 456.476898 312.812345 452.5433 316.745943 
C 448.609703 320.679541 446.39952 326.015393 446.39952 331.57834 
C 446.39952 337.141287 448.609703 342.477139 452.5433 346.410737 
C 456.476898 350.344335 461.81275 352.554517 467.375697 352.554517 
z
" clip-path="url(#p7261e925cc)" style="fill: #add8e6; fill-opacity: 0.7; stroke: #add8e6; stroke-opacity: 0.7"/>
    <path d="M 480.32096 284.932167 
C 485.246889 284.932167 489.971728 282.975075 493.454886 279.491917 
C 496.938044 276.008759 498.895136 271.28392 498.895136 266.357991 
C 498.895136 261.432062 496.938044 256.707224 493.454886 253.224066 
C 489.971728 249.740908 485.246889 247.783816 480.32096 247.783816 
C 475.395031 247.783816 470.670193 249.740908 467.187035 253.224066 
C 463.703877 256.707224 461.746785 261.432062 461.746785 266.357991 
C 461.746785 271.28392 463.703877 276.008759 467.187035 279.491917 
C 470.670193 282.975075 475.395031 284.932167 480.32096 284.932167 
z
" clip-path="url(#p7261e925cc)" style="fill: #add8e6; fill-opacity: 0.7; stroke: #add8e6; stroke-opacity: 0.7"/>
    <path d="M 771.567769 355.696326 
C 773.443038 355.696326 775.241753 354.951274 776.567769 353.625258 
C 777.893784 352.299243 778.638836 350.500527 778.638836 348.625258 
C 778.638836 346.749989 777.893784 344.951274 776.567769 343.625258 
C 775.241753 342.299243 773.443038 341.55419 771.567769 341.55419 
C 769.692499 341.55419 767.893784 342.299243 766.567769 343.625258 
C 765.241753 344.951274 764.496701 346.749989 764.496701 348.625258 
C 764.496701 350.500527 765.241753 352.299243 766.567769 353.625258 
C 767.893784 354.951274 769.692499 355.696326 771.567769 355.696326 
z
" clip-path="url(#p7261e925cc)" style="fill: #add8e6; fill-opacity: 0.7; stroke: #add8e6; stroke-opacity: 0.7"/>
    <path d="M 294.695582 290.899913 
C 296.91443 290.899913 299.042699 290.018355 300.611662 288.449392 
C 302.180624 286.880429 303.062182 284.752161 303.062182 282.533312 
C 303.062182 280.314464 302.180624 278.186195 300.611662 276.617232 
C 299.042699 275.04827 296.91443 274.166712 294.695582 274.166712 
C 292.476733 274.166712 290.348465 275.04827 288.779502 276.617232 
C 287.210539 278.186195 286.328982 280.314464 286.328982 282.533312 
C 286.328982 284.752161 287.210539 286.880429 288.779502 288.449392 
C 290.348465 290.018355 292.476733 290.899913 294.695582 290.899913 
z
" clip-path="url(#p7261e925cc)" style="fill: #add8e6; fill-opacity: 0.7; stroke: #add8e6; stroke-opacity: 0.7"/>
    <path d="M 517.245035 364.676957 
C 521.310521 364.676957 525.210043 363.061722 528.084776 360.186989 
C 530.959509 357.312256 532.574744 353.412734 532.574744 349.347247 
C 532.574744 345.281761 530.959509 341.382239 528.084776 338.507506 
C 525.210043 335.632773 521.310521 334.017538 517.245035 334.017538 
C 513.179548 334.017538 509.280026 335.632773 506.405293 338.507506 
C 503.53056 341.382239 501.915325 345.281761 501.915325 349.347247 
C 501.915325 353.412734 503.53056 357.312256 506.405293 360.186989 
C 509.280026 363.061722 513.179548 364.676957 517.245035 364.676957 
z
" clip-path="url(#p7261e925cc)" style="fill: #add8e6; fill-opacity: 0.7; stroke: #add8e6; stroke-opacity: 0.7"/>
    <path d="M 531.985419 339.000983 
C 537.484788 339.000983 542.759657 336.816061 546.648298 332.92742 
C 550.536939 329.03878 552.721861 323.763911 552.721861 318.264542 
C 552.721861 312.765174 550.536939 307.490305 546.648298 303.601664 
C 542.759657 299.713023 537.484788 297.528101 531.985419 297.528101 
C 526.486051 297.528101 521.211182 299.713023 517.322541 303.601664 
C 513.4339 307.490305 511.248978 312.765174 511.248978 318.264542 
C 511.248978 323.763911 513.4339 329.03878 517.322541 332.92742 
C 521.211182 336.816061 526.486051 339.000983 531.985419 339.000983 
z
" clip-path="url(#p7261e925cc)" style="fill: #add8e6; fill-opacity: 0.7; stroke: #add8e6; stroke-opacity: 0.7"/>
    <path d="M 417.465237 316.530793 
C 422.426732 316.530793 427.185686 314.55957 430.693993 311.051263 
C 434.2023 307.542955 436.173523 302.784002 436.173523 297.822506 
C 436.173523 292.86101 434.2023 288.102057 430.693993 284.59375 
C 427.185686 281.085442 422.426732 279.114219 417.465237 279.114219 
C 412.503741 279.114219 407.744787 281.085442 404.23648 284.59375 
C 400.728173 288.102057 398.75695 292.86101 398.75695 297.822506 
C 398.75695 302.784002 400.728173 307.542955 404.23648 311.051263 
C 407.744787 314.55957 412.503741 316.530793 417.465237 316.530793 
z
" clip-path="url(#p7261e925cc)" style="fill: #add8e6; fill-opacity: 0.7; stroke: #add8e6; stroke-opacity: 0.7"/>
    <path d="M 564.33123 292.685045 
C 569.733828 292.685045 574.915877 290.53857 578.73609 286.718357 
C 582.556304 282.898143 584.702779 277.716094 584.702779 272.313496 
C 584.702779 266.910898 582.556304 261.72885 578.73609 257.908636 
C 574.915877 254.088422 569.733828 251.941948 564.33123 251.941948 
C 558.928632 251.941948 553.746583 254.088422 549.92637 257.908636 
C 546.106156 261.72885 543.959681 266.910898 543.959681 272.313496 
C 543.959681 277.716094 546.106156 282.898143 549.92637 286.718357 
C 553.746583 290.53857 558.928632 292.685045 564.33123 292.685045 
z
" clip-path="url(#p7261e925cc)" style="fill: #add8e6; fill-opacity: 0.7; stroke: #add8e6; stroke-opacity: 0.7"/>
    <path d="M 517.129146 314.438808 
C 526.200488 314.438808 534.901512 310.834726 541.315919 304.420319 
C 547.730326 298.005912 551.334409 289.304887 551.334409 280.233546 
C 551.334409 271.162204 547.730326 262.46118 541.315919 256.046772 
C 534.901512 249.632365 526.200488 246.028283 517.129146 246.028283 
C 508.057804 246.028283 499.35678 249.632365 492.942373 256.046772 
C 486.527965 262.46118 482.923883 271.162204 482.923883 280.233546 
C 482.923883 289.304887 486.527965 298.005912 492.942373 304.420319 
C 499.35678 310.834726 508.057804 314.438808 517.129146 314.438808 
z
" clip-path="url(#p7261e925cc)" style="fill: #add8e6; fill-opacity: 0.7; stroke: #add8e6; stroke-opacity: 0.7"/>
    <path d="M 79.832231 340.083153 
C 81.401194 340.083153 82.906107 339.459798 84.015532 338.350374 
C 85.124956 337.24095 85.748311 335.736036 85.748311 334.167074 
C 85.748311 332.598111 85.124956 331.093198 84.015532 329.983773 
C 82.906107 328.874349 81.401194 328.250994 79.832231 328.250994 
C 78.263269 328.250994 76.758355 328.874349 75.648931 329.983773 
C 74.539507 331.093198 73.916152 332.598111 73.916152 334.167074 
C 73.916152 335.736036 74.539507 337.24095 75.648931 338.350374 
C 76.758355 339.459798 78.263269 340.083153 79.832231 340.083153 
z
" clip-path="url(#p7261e925cc)" style="fill: #add8e6; fill-opacity: 0.7; stroke: #add8e6; stroke-opacity: 0.7"/>
   </g>
   <g id="text_1">
    <g clip-path="url(#p7261e925cc)">
     <!-- chris7716 -->
     <g transform="translate(611.208397 170.200908) scale(0.08 -0.08)">
      <defs>
       <path id="DejaVuSans-63" d="M 3122 3366 
L 3122 2828 
Q 2878 2963 2633 3030 
Q 2388 3097 2138 3097 
Q 1578 3097 1268 2742 
Q 959 2388 959 1747 
Q 959 1106 1268 751 
Q 1578 397 2138 397 
Q 2388 397 2633 464 
Q 2878 531 3122 666 
L 3122 134 
Q 2881 22 2623 -34 
Q 2366 -91 2075 -91 
Q 1284 -91 818 406 
Q 353 903 353 1747 
Q 353 2603 823 3093 
Q 1294 3584 2113 3584 
Q 2378 3584 2631 3529 
Q 2884 3475 3122 3366 
z
" transform="scale(0.015625)"/>
       <path id="DejaVuSans-68" d="M 3513 2113 
L 3513 0 
L 2938 0 
L 2938 2094 
Q 2938 2591 2744 2837 
Q 2550 3084 2163 3084 
Q 1697 3084 1428 2787 
Q 1159 2491 1159 1978 
L 1159 0 
L 581 0 
L 581 4863 
L 1159 4863 
L 1159 2956 
Q 1366 3272 1645 3428 
Q 1925 3584 2291 3584 
Q 2894 3584 3203 3211 
Q 3513 2838 3513 2113 
z
" transform="scale(0.015625)"/>
       <path id="DejaVuSans-72" d="M 2631 2963 
Q 2534 3019 2420 3045 
Q 2306 3072 2169 3072 
Q 1681 3072 1420 2755 
Q 1159 2438 1159 1844 
L 1159 0 
L 581 0 
L 581 3500 
L 1159 3500 
L 1159 2956 
Q 1341 3275 1631 3429 
Q 1922 3584 2338 3584 
Q 2397 3584 2469 3576 
Q 2541 3569 2628 3553 
L 2631 2963 
z
" transform="scale(0.015625)"/>
       <path id="DejaVuSans-69" d="M 603 3500 
L 1178 3500 
L 1178 0 
L 603 0 
L 603 3500 
z
M 603 4863 
L 1178 4863 
L 1178 4134 
L 603 4134 
L 603 4863 
z
" transform="scale(0.015625)"/>
       <path id="DejaVuSans-73" d="M 2834 3397 
L 2834 2853 
Q 2591 2978 2328 3040 
Q 2066 3103 1784 3103 
Q 1356 3103 1142 2972 
Q 928 2841 928 2578 
Q 928 2378 1081 2264 
Q 1234 2150 1697 2047 
L 1894 2003 
Q 2506 1872 2764 1633 
Q 3022 1394 3022 966 
Q 3022 478 2636 193 
Q 2250 -91 1575 -91 
Q 1294 -91 989 -36 
Q 684 19 347 128 
L 347 722 
Q 666 556 975 473 
Q 1284 391 1588 391 
Q 1994 391 2212 530 
Q 2431 669 2431 922 
Q 2431 1156 2273 1281 
Q 2116 1406 1581 1522 
L 1381 1569 
Q 847 1681 609 1914 
Q 372 2147 372 2553 
Q 372 3047 722 3315 
Q 1072 3584 1716 3584 
Q 2034 3584 2315 3537 
Q 2597 3491 2834 3397 
z
" transform="scale(0.015625)"/>
       <path id="DejaVuSans-37" d="M 525 4666 
L 3525 4666 
L 3525 4397 
L 1831 0 
L 1172 0 
L 2766 4134 
L 525 4134 
L 525 4666 
z
" transform="scale(0.015625)"/>
       <path id="DejaVuSans-31" d="M 794 531 
L 1825 531 
L 1825 4091 
L 703 3866 
L 703 4441 
L 1819 4666 
L 2450 4666 
L 2450 531 
L 3481 531 
L 3481 0 
L 794 0 
L 794 531 
z
" transform="scale(0.015625)"/>
       <path id="DejaVuSans-36" d="M 2113 2584 
Q 1688 2584 1439 2293 
Q 1191 2003 1191 1497 
Q 1191 994 1439 701 
Q 1688 409 2113 409 
Q 2538 409 2786 701 
Q 3034 994 3034 1497 
Q 3034 2003 2786 2293 
Q 2538 2584 2113 2584 
z
M 3366 4563 
L 3366 3988 
Q 3128 4100 2886 4159 
Q 2644 4219 2406 4219 
Q 1781 4219 1451 3797 
Q 1122 3375 1075 2522 
Q 1259 2794 1537 2939 
Q 1816 3084 2150 3084 
Q 2853 3084 3261 2657 
Q 3669 2231 3669 1497 
Q 3669 778 3244 343 
Q 2819 -91 2113 -91 
Q 1303 -91 875 529 
Q 447 1150 447 2328 
Q 447 3434 972 4092 
Q 1497 4750 2381 4750 
Q 2619 4750 2861 4703 
Q 3103 4656 3366 4563 
z
" transform="scale(0.015625)"/>
      </defs>
      <use xlink:href="#DejaVuSans-63"/>
      <use xlink:href="#DejaVuSans-68" transform="translate(54.980469 0)"/>
      <use xlink:href="#DejaVuSans-72" transform="translate(118.359375 0)"/>
      <use xlink:href="#DejaVuSans-69" transform="translate(159.472656 0)"/>
      <use xlink:href="#DejaVuSans-73" transform="translate(187.255859 0)"/>
      <use xlink:href="#DejaVuSans-37" transform="translate(239.355469 0)"/>
      <use xlink:href="#DejaVuSans-37" transform="translate(302.978516 0)"/>
      <use xlink:href="#DejaVuSans-31" transform="translate(366.601562 0)"/>
      <use xlink:href="#DejaVuSans-36" transform="translate(430.224609 0)"/>
     </g>
    </g>
   </g>
   <g id="text_2">
    <g clip-path="url(#p7261e925cc)">
     <!-- kevintab95 -->
     <g transform="translate(446.331228 204.299687) scale(0.08 -0.08)">
      <defs>
       <path id="DejaVuSans-6b" d="M 581 4863 
L 1159 4863 
L 1159 1991 
L 2875 3500 
L 3609 3500 
L 1753 1863 
L 3688 0 
L 2938 0 
L 1159 1709 
L 1159 0 
L 581 0 
L 581 4863 
z
" transform="scale(0.015625)"/>
       <path id="DejaVuSans-65" d="M 3597 1894 
L 3597 1613 
L 953 1613 
Q 991 1019 1311 708 
Q 1631 397 2203 397 
Q 2534 397 2845 478 
Q 3156 559 3463 722 
L 3463 178 
Q 3153 47 2828 -22 
Q 2503 -91 2169 -91 
Q 1331 -91 842 396 
Q 353 884 353 1716 
Q 353 2575 817 3079 
Q 1281 3584 2069 3584 
Q 2775 3584 3186 3129 
Q 3597 2675 3597 1894 
z
M 3022 2063 
Q 3016 2534 2758 2815 
Q 2500 3097 2075 3097 
Q 1594 3097 1305 2825 
Q 1016 2553 972 2059 
L 3022 2063 
z
" transform="scale(0.015625)"/>
       <path id="DejaVuSans-76" d="M 191 3500 
L 800 3500 
L 1894 563 
L 2988 3500 
L 3597 3500 
L 2284 0 
L 1503 0 
L 191 3500 
z
" transform="scale(0.015625)"/>
       <path id="DejaVuSans-6e" d="M 3513 2113 
L 3513 0 
L 2938 0 
L 2938 2094 
Q 2938 2591 2744 2837 
Q 2550 3084 2163 3084 
Q 1697 3084 1428 2787 
Q 1159 2491 1159 1978 
L 1159 0 
L 581 0 
L 581 3500 
L 1159 3500 
L 1159 2956 
Q 1366 3272 1645 3428 
Q 1925 3584 2291 3584 
Q 2894 3584 3203 3211 
Q 3513 2838 3513 2113 
z
" transform="scale(0.015625)"/>
       <path id="DejaVuSans-74" d="M 1172 4494 
L 1172 3500 
L 2356 3500 
L 2356 3053 
L 1172 3053 
L 1172 1153 
Q 1172 725 1289 603 
Q 1406 481 1766 481 
L 2356 481 
L 2356 0 
L 1766 0 
Q 1100 0 847 248 
Q 594 497 594 1153 
L 594 3053 
L 172 3053 
L 172 3500 
L 594 3500 
L 594 4494 
L 1172 4494 
z
" transform="scale(0.015625)"/>
       <path id="DejaVuSans-61" d="M 2194 1759 
Q 1497 1759 1228 1600 
Q 959 1441 959 1056 
Q 959 750 1161 570 
Q 1363 391 1709 391 
Q 2188 391 2477 730 
Q 2766 1069 2766 1631 
L 2766 1759 
L 2194 1759 
z
M 3341 1997 
L 3341 0 
L 2766 0 
L 2766 531 
Q 2569 213 2275 61 
Q 1981 -91 1556 -91 
Q 1019 -91 701 211 
Q 384 513 384 1019 
Q 384 1609 779 1909 
Q 1175 2209 1959 2209 
L 2766 2209 
L 2766 2266 
Q 2766 2663 2505 2880 
Q 2244 3097 1772 3097 
Q 1472 3097 1187 3025 
Q 903 2953 641 2809 
L 641 3341 
Q 956 3463 1253 3523 
Q 1550 3584 1831 3584 
Q 2591 3584 2966 3190 
Q 3341 2797 3341 1997 
z
" transform="scale(0.015625)"/>
       <path id="DejaVuSans-62" d="M 3116 1747 
Q 3116 2381 2855 2742 
Q 2594 3103 2138 3103 
Q 1681 3103 1420 2742 
Q 1159 2381 1159 1747 
Q 1159 1113 1420 752 
Q 1681 391 2138 391 
Q 2594 391 2855 752 
Q 3116 1113 3116 1747 
z
M 1159 2969 
Q 1341 3281 1617 3432 
Q 1894 3584 2278 3584 
Q 2916 3584 3314 3078 
Q 3713 2572 3713 1747 
Q 3713 922 3314 415 
Q 2916 -91 2278 -91 
Q 1894 -91 1617 61 
Q 1341 213 1159 525 
L 1159 0 
L 581 0 
L 581 4863 
L 1159 4863 
L 1159 2969 
z
" transform="scale(0.015625)"/>
       <path id="DejaVuSans-39" d="M 703 97 
L 703 672 
Q 941 559 1184 500 
Q 1428 441 1663 441 
Q 2288 441 2617 861 
Q 2947 1281 2994 2138 
Q 2813 1869 2534 1725 
Q 2256 1581 1919 1581 
Q 1219 1581 811 2004 
Q 403 2428 403 3163 
Q 403 3881 828 4315 
Q 1253 4750 1959 4750 
Q 2769 4750 3195 4129 
Q 3622 3509 3622 2328 
Q 3622 1225 3098 567 
Q 2575 -91 1691 -91 
Q 1453 -91 1209 -44 
Q 966 3 703 97 
z
M 1959 2075 
Q 2384 2075 2632 2365 
Q 2881 2656 2881 3163 
Q 2881 3666 2632 3958 
Q 2384 4250 1959 4250 
Q 1534 4250 1286 3958 
Q 1038 3666 1038 3163 
Q 1038 2656 1286 2365 
Q 1534 2075 1959 2075 
z
" transform="scale(0.015625)"/>
       <path id="DejaVuSans-35" d="M 691 4666 
L 3169 4666 
L 3169 4134 
L 1269 4134 
L 1269 2991 
Q 1406 3038 1543 3061 
Q 1681 3084 1819 3084 
Q 2600 3084 3056 2656 
Q 3513 2228 3513 1497 
Q 3513 744 3044 326 
Q 2575 -91 1722 -91 
Q 1428 -91 1123 -41 
Q 819 9 494 109 
L 494 744 
Q 775 591 1075 516 
Q 1375 441 1709 441 
Q 2250 441 2565 725 
Q 2881 1009 2881 1497 
Q 2881 1984 2565 2268 
Q 2250 2553 1709 2553 
Q 1456 2553 1204 2497 
Q 953 2441 691 2322 
L 691 4666 
z
" transform="scale(0.015625)"/>
      </defs>
      <use xlink:href="#DejaVuSans-6b"/>
      <use xlink:href="#DejaVuSans-65" transform="translate(54.285156 0)"/>
      <use xlink:href="#DejaVuSans-76" transform="translate(115.808594 0)"/>
      <use xlink:href="#DejaVuSans-69" transform="translate(174.988281 0)"/>
      <use xlink:href="#DejaVuSans-6e" transform="translate(202.771484 0)"/>
      <use xlink:href="#DejaVuSans-74" transform="translate(266.150391 0)"/>
      <use xlink:href="#DejaVuSans-61" transform="translate(305.359375 0)"/>
      <use xlink:href="#DejaVuSans-62" transform="translate(366.638672 0)"/>
      <use xlink:href="#DejaVuSans-39" transform="translate(430.115234 0)"/>
      <use xlink:href="#DejaVuSans-35" transform="translate(493.738281 0)"/>
     </g>
    </g>
   </g>
   <g id="text_3">
    <g clip-path="url(#p7261e925cc)">
     <!-- PedroSampaioDias -->
     <g transform="translate(328.271342 93.29871) scale(0.08 -0.08)">
      <defs>
       <path id="DejaVuSans-50" d="M 1259 4147 
L 1259 2394 
L 2053 2394 
Q 2494 2394 2734 2622 
Q 2975 2850 2975 3272 
Q 2975 3691 2734 3919 
Q 2494 4147 2053 4147 
L 1259 4147 
z
M 628 4666 
L 2053 4666 
Q 2838 4666 3239 4311 
Q 3641 3956 3641 3272 
Q 3641 2581 3239 2228 
Q 2838 1875 2053 1875 
L 1259 1875 
L 1259 0 
L 628 0 
L 628 4666 
z
" transform="scale(0.015625)"/>
       <path id="DejaVuSans-64" d="M 2906 2969 
L 2906 4863 
L 3481 4863 
L 3481 0 
L 2906 0 
L 2906 525 
Q 2725 213 2448 61 
Q 2172 -91 1784 -91 
Q 1150 -91 751 415 
Q 353 922 353 1747 
Q 353 2572 751 3078 
Q 1150 3584 1784 3584 
Q 2172 3584 2448 3432 
Q 2725 3281 2906 2969 
z
M 947 1747 
Q 947 1113 1208 752 
Q 1469 391 1925 391 
Q 2381 391 2643 752 
Q 2906 1113 2906 1747 
Q 2906 2381 2643 2742 
Q 2381 3103 1925 3103 
Q 1469 3103 1208 2742 
Q 947 2381 947 1747 
z
" transform="scale(0.015625)"/>
       <path id="DejaVuSans-6f" d="M 1959 3097 
Q 1497 3097 1228 2736 
Q 959 2375 959 1747 
Q 959 1119 1226 758 
Q 1494 397 1959 397 
Q 2419 397 2687 759 
Q 2956 1122 2956 1747 
Q 2956 2369 2687 2733 
Q 2419 3097 1959 3097 
z
M 1959 3584 
Q 2709 3584 3137 3096 
Q 3566 2609 3566 1747 
Q 3566 888 3137 398 
Q 2709 -91 1959 -91 
Q 1206 -91 779 398 
Q 353 888 353 1747 
Q 353 2609 779 3096 
Q 1206 3584 1959 3584 
z
" transform="scale(0.015625)"/>
       <path id="DejaVuSans-53" d="M 3425 4513 
L 3425 3897 
Q 3066 4069 2747 4153 
Q 2428 4238 2131 4238 
Q 1616 4238 1336 4038 
Q 1056 3838 1056 3469 
Q 1056 3159 1242 3001 
Q 1428 2844 1947 2747 
L 2328 2669 
Q 3034 2534 3370 2195 
Q 3706 1856 3706 1288 
Q 3706 609 3251 259 
Q 2797 -91 1919 -91 
Q 1588 -91 1214 -16 
Q 841 59 441 206 
L 441 856 
Q 825 641 1194 531 
Q 1563 422 1919 422 
Q 2459 422 2753 634 
Q 3047 847 3047 1241 
Q 3047 1584 2836 1778 
Q 2625 1972 2144 2069 
L 1759 2144 
Q 1053 2284 737 2584 
Q 422 2884 422 3419 
Q 422 4038 858 4394 
Q 1294 4750 2059 4750 
Q 2388 4750 2728 4690 
Q 3069 4631 3425 4513 
z
" transform="scale(0.015625)"/>
       <path id="DejaVuSans-6d" d="M 3328 2828 
Q 3544 3216 3844 3400 
Q 4144 3584 4550 3584 
Q 5097 3584 5394 3201 
Q 5691 2819 5691 2113 
L 5691 0 
L 5113 0 
L 5113 2094 
Q 5113 2597 4934 2840 
Q 4756 3084 4391 3084 
Q 3944 3084 3684 2787 
Q 3425 2491 3425 1978 
L 3425 0 
L 2847 0 
L 2847 2094 
Q 2847 2600 2669 2842 
Q 2491 3084 2119 3084 
Q 1678 3084 1418 2786 
Q 1159 2488 1159 1978 
L 1159 0 
L 581 0 
L 581 3500 
L 1159 3500 
L 1159 2956 
Q 1356 3278 1631 3431 
Q 1906 3584 2284 3584 
Q 2666 3584 2933 3390 
Q 3200 3197 3328 2828 
z
" transform="scale(0.015625)"/>
       <path id="DejaVuSans-70" d="M 1159 525 
L 1159 -1331 
L 581 -1331 
L 581 3500 
L 1159 3500 
L 1159 2969 
Q 1341 3281 1617 3432 
Q 1894 3584 2278 3584 
Q 2916 3584 3314 3078 
Q 3713 2572 3713 1747 
Q 3713 922 3314 415 
Q 2916 -91 2278 -91 
Q 1894 -91 1617 61 
Q 1341 213 1159 525 
z
M 3116 1747 
Q 3116 2381 2855 2742 
Q 2594 3103 2138 3103 
Q 1681 3103 1420 2742 
Q 1159 2381 1159 1747 
Q 1159 1113 1420 752 
Q 1681 391 2138 391 
Q 2594 391 2855 752 
Q 3116 1113 3116 1747 
z
" transform="scale(0.015625)"/>
       <path id="DejaVuSans-44" d="M 1259 4147 
L 1259 519 
L 2022 519 
Q 2988 519 3436 956 
Q 3884 1394 3884 2338 
Q 3884 3275 3436 3711 
Q 2988 4147 2022 4147 
L 1259 4147 
z
M 628 4666 
L 1925 4666 
Q 3281 4666 3915 4102 
Q 4550 3538 4550 2338 
Q 4550 1131 3912 565 
Q 3275 0 1925 0 
L 628 0 
L 628 4666 
z
" transform="scale(0.015625)"/>
      </defs>
      <use xlink:href="#DejaVuSans-50"/>
      <use xlink:href="#DejaVuSans-65" transform="translate(56.677734 0)"/>
      <use xlink:href="#DejaVuSans-64" transform="translate(118.201172 0)"/>
      <use xlink:href="#DejaVuSans-72" transform="translate(181.677734 0)"/>
      <use xlink:href="#DejaVuSans-6f" transform="translate(220.541016 0)"/>
      <use xlink:href="#DejaVuSans-53" transform="translate(281.722656 0)"/>
      <use xlink:href="#DejaVuSans-61" transform="translate(345.199219 0)"/>
      <use xlink:href="#DejaVuSans-6d" transform="translate(406.478516 0)"/>
      <use xlink:href="#DejaVuSans-70" transform="translate(503.890625 0)"/>
      <use xlink:href="#DejaVuSans-61" transform="translate(567.367188 0)"/>
      <use xlink:href="#DejaVuSans-69" transform="translate(628.646484 0)"/>
      <use xlink:href="#DejaVuSans-6f" transform="translate(656.429688 0)"/>
      <use xlink:href="#DejaVuSans-44" transform="translate(717.611328 0)"/>
      <use xlink:href="#DejaVuSans-69" transform="translate(794.613281 0)"/>
      <use xlink:href="#DejaVuSans-61" transform="translate(822.396484 0)"/>
      <use xlink:href="#DejaVuSans-73" transform="translate(883.675781 0)"/>
     </g>
    </g>
   </g>
   <g id="text_4">
    <g clip-path="url(#p7261e925cc)">
     <!-- Naman3120-Web -->
     <g transform="translate(448.949505 447.771688) scale(0.08 -0.08)">
      <defs>
       <path id="DejaVuSans-4e" d="M 628 4666 
L 1478 4666 
L 3547 763 
L 3547 4666 
L 4159 4666 
L 4159 0 
L 3309 0 
L 1241 3903 
L 1241 0 
L 628 0 
L 628 4666 
z
" transform="scale(0.015625)"/>
       <path id="DejaVuSans-33" d="M 2597 2516 
Q 3050 2419 3304 2112 
Q 3559 1806 3559 1356 
Q 3559 666 3084 287 
Q 2609 -91 1734 -91 
Q 1441 -91 1130 -33 
Q 819 25 488 141 
L 488 750 
Q 750 597 1062 519 
Q 1375 441 1716 441 
Q 2309 441 2620 675 
Q 2931 909 2931 1356 
Q 2931 1769 2642 2001 
Q 2353 2234 1838 2234 
L 1294 2234 
L 1294 2753 
L 1863 2753 
Q 2328 2753 2575 2939 
Q 2822 3125 2822 3475 
Q 2822 3834 2567 4026 
Q 2313 4219 1838 4219 
Q 1578 4219 1281 4162 
Q 984 4106 628 3988 
L 628 4550 
Q 988 4650 1302 4700 
Q 1616 4750 1894 4750 
Q 2613 4750 3031 4423 
Q 3450 4097 3450 3541 
Q 3450 3153 3228 2886 
Q 3006 2619 2597 2516 
z
" transform="scale(0.015625)"/>
       <path id="DejaVuSans-32" d="M 1228 531 
L 3431 531 
L 3431 0 
L 469 0 
L 469 531 
Q 828 903 1448 1529 
Q 2069 2156 2228 2338 
Q 2531 2678 2651 2914 
Q 2772 3150 2772 3378 
Q 2772 3750 2511 3984 
Q 2250 4219 1831 4219 
Q 1534 4219 1204 4116 
Q 875 4013 500 3803 
L 500 4441 
Q 881 4594 1212 4672 
Q 1544 4750 1819 4750 
Q 2544 4750 2975 4387 
Q 3406 4025 3406 3419 
Q 3406 3131 3298 2873 
Q 3191 2616 2906 2266 
Q 2828 2175 2409 1742 
Q 1991 1309 1228 531 
z
" transform="scale(0.015625)"/>
       <path id="DejaVuSans-30" d="M 2034 4250 
Q 1547 4250 1301 3770 
Q 1056 3291 1056 2328 
Q 1056 1369 1301 889 
Q 1547 409 2034 409 
Q 2525 409 2770 889 
Q 3016 1369 3016 2328 
Q 3016 3291 2770 3770 
Q 2525 4250 2034 4250 
z
M 2034 4750 
Q 2819 4750 3233 4129 
Q 3647 3509 3647 2328 
Q 3647 1150 3233 529 
Q 2819 -91 2034 -91 
Q 1250 -91 836 529 
Q 422 1150 422 2328 
Q 422 3509 836 4129 
Q 1250 4750 2034 4750 
z
" transform="scale(0.015625)"/>
       <path id="DejaVuSans-2d" d="M 313 2009 
L 1997 2009 
L 1997 1497 
L 313 1497 
L 313 2009 
z
" transform="scale(0.015625)"/>
       <path id="DejaVuSans-57" d="M 213 4666 
L 850 4666 
L 1831 722 
L 2809 4666 
L 3519 4666 
L 4500 722 
L 5478 4666 
L 6119 4666 
L 4947 0 
L 4153 0 
L 3169 4050 
L 2175 0 
L 1381 0 
L 213 4666 
z
" transform="scale(0.015625)"/>
      </defs>
      <use xlink:href="#DejaVuSans-4e"/>
      <use xlink:href="#DejaVuSans-61" transform="translate(74.804688 0)"/>
      <use xlink:href="#DejaVuSans-6d" transform="translate(136.083984 0)"/>
      <use xlink:href="#DejaVuSans-61" transform="translate(233.496094 0)"/>
      <use xlink:href="#DejaVuSans-6e" transform="translate(294.775391 0)"/>
      <use xlink:href="#DejaVuSans-33" transform="translate(358.154297 0)"/>
      <use xlink:href="#DejaVuSans-31" transform="translate(421.777344 0)"/>
      <use xlink:href="#DejaVuSans-32" transform="translate(485.400391 0)"/>
      <use xlink:href="#DejaVuSans-30" transform="translate(549.023438 0)"/>
      <use xlink:href="#DejaVuSans-2d" transform="translate(612.646484 0)"/>
      <use xlink:href="#DejaVuSans-57" transform="translate(644.730469 0)"/>
      <use xlink:href="#DejaVuSans-65" transform="translate(737.732422 0)"/>
      <use xlink:href="#DejaVuSans-62" transform="translate(799.255859 0)"/>
     </g>
    </g>
   </g>
   <g id="text_5">
    <g clip-path="url(#p7261e925cc)">
     <!-- Ansingh0305 -->
     <g transform="translate(563.598377 49.725625) scale(0.08 -0.08)">
      <defs>
       <path id="DejaVuSans-41" d="M 2188 4044 
L 1331 1722 
L 3047 1722 
L 2188 4044 
z
M 1831 4666 
L 2547 4666 
L 4325 0 
L 3669 0 
L 3244 1197 
L 1141 1197 
L 716 0 
L 50 0 
L 1831 4666 
z
" transform="scale(0.015625)"/>
       <path id="DejaVuSans-67" d="M 2906 1791 
Q 2906 2416 2648 2759 
Q 2391 3103 1925 3103 
Q 1463 3103 1205 2759 
Q 947 2416 947 1791 
Q 947 1169 1205 825 
Q 1463 481 1925 481 
Q 2391 481 2648 825 
Q 2906 1169 2906 1791 
z
M 3481 434 
Q 3481 -459 3084 -895 
Q 2688 -1331 1869 -1331 
Q 1566 -1331 1297 -1286 
Q 1028 -1241 775 -1147 
L 775 -588 
Q 1028 -725 1275 -790 
Q 1522 -856 1778 -856 
Q 2344 -856 2625 -561 
Q 2906 -266 2906 331 
L 2906 616 
Q 2728 306 2450 153 
Q 2172 0 1784 0 
Q 1141 0 747 490 
Q 353 981 353 1791 
Q 353 2603 747 3093 
Q 1141 3584 1784 3584 
Q 2172 3584 2450 3431 
Q 2728 3278 2906 2969 
L 2906 3500 
L 3481 3500 
L 3481 434 
z
" transform="scale(0.015625)"/>
      </defs>
      <use xlink:href="#DejaVuSans-41"/>
      <use xlink:href="#DejaVuSans-6e" transform="translate(68.408203 0)"/>
      <use xlink:href="#DejaVuSans-73" transform="translate(131.787109 0)"/>
      <use xlink:href="#DejaVuSans-69" transform="translate(183.886719 0)"/>
      <use xlink:href="#DejaVuSans-6e" transform="translate(211.669922 0)"/>
      <use xlink:href="#DejaVuSans-67" transform="translate(275.048828 0)"/>
      <use xlink:href="#DejaVuSans-68" transform="translate(338.525391 0)"/>
      <use xlink:href="#DejaVuSans-30" transform="translate(401.904297 0)"/>
      <use xlink:href="#DejaVuSans-33" transform="translate(465.527344 0)"/>
      <use xlink:href="#DejaVuSans-30" transform="translate(529.150391 0)"/>
      <use xlink:href="#DejaVuSans-35" transform="translate(592.773438 0)"/>
     </g>
    </g>
   </g>
   <g id="text_6">
    <g clip-path="url(#p7261e925cc)">
     <!-- piyush140104 -->
     <g transform="translate(196.636065 410.540812) scale(0.08 -0.08)">
      <defs>
       <path id="DejaVuSans-79" d="M 2059 -325 
Q 1816 -950 1584 -1140 
Q 1353 -1331 966 -1331 
L 506 -1331 
L 506 -850 
L 844 -850 
Q 1081 -850 1212 -737 
Q 1344 -625 1503 -206 
L 1606 56 
L 191 3500 
L 800 3500 
L 1894 763 
L 2988 3500 
L 3597 3500 
L 2059 -325 
z
" transform="scale(0.015625)"/>
       <path id="DejaVuSans-75" d="M 544 1381 
L 544 3500 
L 1119 3500 
L 1119 1403 
Q 1119 906 1312 657 
Q 1506 409 1894 409 
Q 2359 409 2629 706 
Q 2900 1003 2900 1516 
L 2900 3500 
L 3475 3500 
L 3475 0 
L 2900 0 
L 2900 538 
Q 2691 219 2414 64 
Q 2138 -91 1772 -91 
Q 1169 -91 856 284 
Q 544 659 544 1381 
z
M 1991 3584 
L 1991 3584 
z
" transform="scale(0.015625)"/>
       <path id="DejaVuSans-34" d="M 2419 4116 
L 825 1625 
L 2419 1625 
L 2419 4116 
z
M 2253 4666 
L 3047 4666 
L 3047 1625 
L 3713 1625 
L 3713 1100 
L 3047 1100 
L 3047 0 
L 2419 0 
L 2419 1100 
L 313 1100 
L 313 1709 
L 2253 4666 
z
" transform="scale(0.015625)"/>
      </defs>
      <use xlink:href="#DejaVuSans-70"/>
      <use xlink:href="#DejaVuSans-69" transform="translate(63.476562 0)"/>
      <use xlink:href="#DejaVuSans-79" transform="translate(91.259766 0)"/>
      <use xlink:href="#DejaVuSans-75" transform="translate(150.439453 0)"/>
      <use xlink:href="#DejaVuSans-73" transform="translate(213.818359 0)"/>
      <use xlink:href="#DejaVuSans-68" transform="translate(265.917969 0)"/>
      <use xlink:href="#DejaVuSans-31" transform="translate(329.296875 0)"/>
      <use xlink:href="#DejaVuSans-34" transform="translate(392.919922 0)"/>
      <use xlink:href="#DejaVuSans-30" transform="translate(456.542969 0)"/>
      <use xlink:href="#DejaVuSans-31" transform="translate(520.166016 0)"/>
      <use xlink:href="#DejaVuSans-30" transform="translate(583.789062 0)"/>
      <use xlink:href="#DejaVuSans-34" transform="translate(647.412109 0)"/>
     </g>
    </g>
   </g>
   <g id="text_7">
    <g clip-path="url(#p7261e925cc)">
     <!-- jayam04 -->
     <g transform="translate(429.357465 318.88871) scale(0.08 -0.08)">
      <defs>
       <path id="DejaVuSans-6a" d="M 603 3500 
L 1178 3500 
L 1178 -63 
Q 1178 -731 923 -1031 
Q 669 -1331 103 -1331 
L -116 -1331 
L -116 -844 
L 38 -844 
Q 366 -844 484 -692 
Q 603 -541 603 -63 
L 603 3500 
z
M 603 4863 
L 1178 4863 
L 1178 4134 
L 603 4134 
L 603 4863 
z
" transform="scale(0.015625)"/>
      </defs>
      <use xlink:href="#DejaVuSans-6a"/>
      <use xlink:href="#DejaVuSans-61" transform="translate(27.783203 0)"/>
      <use xlink:href="#DejaVuSans-79" transform="translate(89.0625 0)"/>
      <use xlink:href="#DejaVuSans-61" transform="translate(148.242188 0)"/>
      <use xlink:href="#DejaVuSans-6d" transform="translate(209.521484 0)"/>
      <use xlink:href="#DejaVuSans-30" transform="translate(306.933594 0)"/>
      <use xlink:href="#DejaVuSans-34" transform="translate(370.556641 0)"/>
     </g>
    </g>
   </g>
   <g id="text_8">
    <g clip-path="url(#p7261e925cc)">
     <!-- FaithAbiola -->
     <g transform="translate(568.011126 288.372263) scale(0.08 -0.08)">
      <defs>
       <path id="DejaVuSans-46" d="M 628 4666 
L 3309 4666 
L 3309 4134 
L 1259 4134 
L 1259 2759 
L 3109 2759 
L 3109 2228 
L 1259 2228 
L 1259 0 
L 628 0 
L 628 4666 
z
" transform="scale(0.015625)"/>
       <path id="DejaVuSans-6c" d="M 603 4863 
L 1178 4863 
L 1178 0 
L 603 0 
L 603 4863 
z
" transform="scale(0.015625)"/>
      </defs>
      <use xlink:href="#DejaVuSans-46"/>
      <use xlink:href="#DejaVuSans-61" transform="translate(48.394531 0)"/>
      <use xlink:href="#DejaVuSans-69" transform="translate(109.673828 0)"/>
      <use xlink:href="#DejaVuSans-74" transform="translate(137.457031 0)"/>
      <use xlink:href="#DejaVuSans-68" transform="translate(176.666016 0)"/>
      <use xlink:href="#DejaVuSans-41" transform="translate(240.044922 0)"/>
      <use xlink:href="#DejaVuSans-62" transform="translate(308.453125 0)"/>
      <use xlink:href="#DejaVuSans-69" transform="translate(371.929688 0)"/>
      <use xlink:href="#DejaVuSans-6f" transform="translate(399.712891 0)"/>
      <use xlink:href="#DejaVuSans-6c" transform="translate(460.894531 0)"/>
      <use xlink:href="#DejaVuSans-61" transform="translate(488.677734 0)"/>
     </g>
    </g>
   </g>
   <g id="text_9">
    <g clip-path="url(#p7261e925cc)">
     <!-- U8NWXD -->
     <g transform="translate(356.688535 531.800534) scale(0.08 -0.08)">
      <defs>
       <path id="DejaVuSans-55" d="M 556 4666 
L 1191 4666 
L 1191 1831 
Q 1191 1081 1462 751 
Q 1734 422 2344 422 
Q 2950 422 3222 751 
Q 3494 1081 3494 1831 
L 3494 4666 
L 4128 4666 
L 4128 1753 
Q 4128 841 3676 375 
Q 3225 -91 2344 -91 
Q 1459 -91 1007 375 
Q 556 841 556 1753 
L 556 4666 
z
" transform="scale(0.015625)"/>
       <path id="DejaVuSans-38" d="M 2034 2216 
Q 1584 2216 1326 1975 
Q 1069 1734 1069 1313 
Q 1069 891 1326 650 
Q 1584 409 2034 409 
Q 2484 409 2743 651 
Q 3003 894 3003 1313 
Q 3003 1734 2745 1975 
Q 2488 2216 2034 2216 
z
M 1403 2484 
Q 997 2584 770 2862 
Q 544 3141 544 3541 
Q 544 4100 942 4425 
Q 1341 4750 2034 4750 
Q 2731 4750 3128 4425 
Q 3525 4100 3525 3541 
Q 3525 3141 3298 2862 
Q 3072 2584 2669 2484 
Q 3125 2378 3379 2068 
Q 3634 1759 3634 1313 
Q 3634 634 3220 271 
Q 2806 -91 2034 -91 
Q 1263 -91 848 271 
Q 434 634 434 1313 
Q 434 1759 690 2068 
Q 947 2378 1403 2484 
z
M 1172 3481 
Q 1172 3119 1398 2916 
Q 1625 2713 2034 2713 
Q 2441 2713 2670 2916 
Q 2900 3119 2900 3481 
Q 2900 3844 2670 4047 
Q 2441 4250 2034 4250 
Q 1625 4250 1398 4047 
Q 1172 3844 1172 3481 
z
" transform="scale(0.015625)"/>
       <path id="DejaVuSans-58" d="M 403 4666 
L 1081 4666 
L 2241 2931 
L 3406 4666 
L 4084 4666 
L 2584 2425 
L 4184 0 
L 3506 0 
L 2194 1984 
L 872 0 
L 191 0 
L 1856 2491 
L 403 4666 
z
" transform="scale(0.015625)"/>
      </defs>
      <use xlink:href="#DejaVuSans-55"/>
      <use xlink:href="#DejaVuSans-38" transform="translate(73.193359 0)"/>
      <use xlink:href="#DejaVuSans-4e" transform="translate(136.816406 0)"/>
      <use xlink:href="#DejaVuSans-57" transform="translate(211.621094 0)"/>
      <use xlink:href="#DejaVuSans-58" transform="translate(310.498047 0)"/>
      <use xlink:href="#DejaVuSans-44" transform="translate(379.003906 0)"/>
     </g>
    </g>
   </g>
   <g id="text_10">
    <g clip-path="url(#p7261e925cc)">
     <!-- HardikGoyal2003 -->
     <g transform="translate(432.718197 333.78584) scale(0.08 -0.08)">
      <defs>
       <path id="DejaVuSans-48" d="M 628 4666 
L 1259 4666 
L 1259 2753 
L 3553 2753 
L 3553 4666 
L 4184 4666 
L 4184 0 
L 3553 0 
L 3553 2222 
L 1259 2222 
L 1259 0 
L 628 0 
L 628 4666 
z
" transform="scale(0.015625)"/>
       <path id="DejaVuSans-47" d="M 3809 666 
L 3809 1919 
L 2778 1919 
L 2778 2438 
L 4434 2438 
L 4434 434 
Q 4069 175 3628 42 
Q 3188 -91 2688 -91 
Q 1594 -91 976 548 
Q 359 1188 359 2328 
Q 359 3472 976 4111 
Q 1594 4750 2688 4750 
Q 3144 4750 3555 4637 
Q 3966 4525 4313 4306 
L 4313 3634 
Q 3963 3931 3569 4081 
Q 3175 4231 2741 4231 
Q 1884 4231 1454 3753 
Q 1025 3275 1025 2328 
Q 1025 1384 1454 906 
Q 1884 428 2741 428 
Q 3075 428 3337 486 
Q 3600 544 3809 666 
z
" transform="scale(0.015625)"/>
      </defs>
      <use xlink:href="#DejaVuSans-48"/>
      <use xlink:href="#DejaVuSans-61" transform="translate(75.195312 0)"/>
      <use xlink:href="#DejaVuSans-72" transform="translate(136.474609 0)"/>
      <use xlink:href="#DejaVuSans-64" transform="translate(175.837891 0)"/>
      <use xlink:href="#DejaVuSans-69" transform="translate(239.314453 0)"/>
      <use xlink:href="#DejaVuSans-6b" transform="translate(267.097656 0)"/>
      <use xlink:href="#DejaVuSans-47" transform="translate(325.007812 0)"/>
      <use xlink:href="#DejaVuSans-6f" transform="translate(402.498047 0)"/>
      <use xlink:href="#DejaVuSans-79" transform="translate(463.679688 0)"/>
      <use xlink:href="#DejaVuSans-61" transform="translate(522.859375 0)"/>
      <use xlink:href="#DejaVuSans-6c" transform="translate(584.138672 0)"/>
      <use xlink:href="#DejaVuSans-32" transform="translate(611.921875 0)"/>
      <use xlink:href="#DejaVuSans-30" transform="translate(675.544922 0)"/>
      <use xlink:href="#DejaVuSans-30" transform="translate(739.167969 0)"/>
      <use xlink:href="#DejaVuSans-33" transform="translate(802.791016 0)"/>
     </g>
    </g>
   </g>
   <g id="text_11">
    <g clip-path="url(#p7261e925cc)">
     <!-- Nik-09 -->
     <g transform="translate(467.367835 268.565491) scale(0.08 -0.08)">
      <use xlink:href="#DejaVuSans-4e"/>
      <use xlink:href="#DejaVuSans-69" transform="translate(74.804688 0)"/>
      <use xlink:href="#DejaVuSans-6b" transform="translate(102.587891 0)"/>
      <use xlink:href="#DejaVuSans-2d" transform="translate(160.498047 0)"/>
      <use xlink:href="#DejaVuSans-30" transform="translate(196.582031 0)"/>
      <use xlink:href="#DejaVuSans-39" transform="translate(260.205078 0)"/>
     </g>
    </g>
   </g>
   <g id="text_12">
    <g clip-path="url(#p7261e925cc)">
     <!-- kishansinghifs1 -->
     <g transform="translate(740.582769 350.832758) scale(0.08 -0.08)">
      <defs>
       <path id="DejaVuSans-66" d="M 2375 4863 
L 2375 4384 
L 1825 4384 
Q 1516 4384 1395 4259 
Q 1275 4134 1275 3809 
L 1275 3500 
L 2222 3500 
L 2222 3053 
L 1275 3053 
L 1275 0 
L 697 0 
L 697 3053 
L 147 3053 
L 147 3500 
L 697 3500 
L 697 3744 
Q 697 4328 969 4595 
Q 1241 4863 1831 4863 
L 2375 4863 
z
" transform="scale(0.015625)"/>
      </defs>
      <use xlink:href="#DejaVuSans-6b"/>
      <use xlink:href="#DejaVuSans-69" transform="translate(57.910156 0)"/>
      <use xlink:href="#DejaVuSans-73" transform="translate(85.693359 0)"/>
      <use xlink:href="#DejaVuSans-68" transform="translate(137.792969 0)"/>
      <use xlink:href="#DejaVuSans-61" transform="translate(201.171875 0)"/>
      <use xlink:href="#DejaVuSans-6e" transform="translate(262.451172 0)"/>
      <use xlink:href="#DejaVuSans-73" transform="translate(325.830078 0)"/>
      <use xlink:href="#DejaVuSans-69" transform="translate(377.929688 0)"/>
      <use xlink:href="#DejaVuSans-6e" transform="translate(405.712891 0)"/>
      <use xlink:href="#DejaVuSans-67" transform="translate(469.091797 0)"/>
      <use xlink:href="#DejaVuSans-68" transform="translate(532.568359 0)"/>
      <use xlink:href="#DejaVuSans-69" transform="translate(595.947266 0)"/>
      <use xlink:href="#DejaVuSans-66" transform="translate(623.730469 0)"/>
      <use xlink:href="#DejaVuSans-73" transform="translate(658.935547 0)"/>
      <use xlink:href="#DejaVuSans-31" transform="translate(711.035156 0)"/>
     </g>
    </g>
   </g>
   <g id="text_13">
    <g clip-path="url(#p7261e925cc)">
     <!-- mosin74 -->
     <g transform="translate(277.531832 284.740812) scale(0.08 -0.08)">
      <use xlink:href="#DejaVuSans-6d"/>
      <use xlink:href="#DejaVuSans-6f" transform="translate(97.412109 0)"/>
      <use xlink:href="#DejaVuSans-73" transform="translate(158.59375 0)"/>
      <use xlink:href="#DejaVuSans-69" transform="translate(210.693359 0)"/>
      <use xlink:href="#DejaVuSans-6e" transform="translate(238.476562 0)"/>
      <use xlink:href="#DejaVuSans-37" transform="translate(301.855469 0)"/>
      <use xlink:href="#DejaVuSans-34" transform="translate(365.478516 0)"/>
     </g>
    </g>
   </g>
   <g id="text_14">
    <g clip-path="url(#p7261e925cc)">
     <!-- KartikSuryavanshi -->
     <g transform="translate(480.97941 351.554747) scale(0.08 -0.08)">
      <defs>
       <path id="DejaVuSans-4b" d="M 628 4666 
L 1259 4666 
L 1259 2694 
L 3353 4666 
L 4166 4666 
L 1850 2491 
L 4331 0 
L 3500 0 
L 1259 2247 
L 1259 0 
L 628 0 
L 628 4666 
z
" transform="scale(0.015625)"/>
      </defs>
      <use xlink:href="#DejaVuSans-4b"/>
      <use xlink:href="#DejaVuSans-61" transform="translate(63.826172 0)"/>
      <use xlink:href="#DejaVuSans-72" transform="translate(125.105469 0)"/>
      <use xlink:href="#DejaVuSans-74" transform="translate(166.21875 0)"/>
      <use xlink:href="#DejaVuSans-69" transform="translate(205.427734 0)"/>
      <use xlink:href="#DejaVuSans-6b" transform="translate(233.210938 0)"/>
      <use xlink:href="#DejaVuSans-53" transform="translate(291.121094 0)"/>
      <use xlink:href="#DejaVuSans-75" transform="translate(354.597656 0)"/>
      <use xlink:href="#DejaVuSans-72" transform="translate(417.976562 0)"/>
      <use xlink:href="#DejaVuSans-79" transform="translate(459.089844 0)"/>
      <use xlink:href="#DejaVuSans-61" transform="translate(518.269531 0)"/>
      <use xlink:href="#DejaVuSans-76" transform="translate(579.548828 0)"/>
      <use xlink:href="#DejaVuSans-61" transform="translate(638.728516 0)"/>
      <use xlink:href="#DejaVuSans-6e" transform="translate(700.007812 0)"/>
      <use xlink:href="#DejaVuSans-73" transform="translate(763.386719 0)"/>
      <use xlink:href="#DejaVuSans-68" transform="translate(815.486328 0)"/>
      <use xlink:href="#DejaVuSans-69" transform="translate(878.865234 0)"/>
     </g>
    </g>
   </g>
   <g id="text_15">
    <g clip-path="url(#p7261e925cc)">
     <!-- NITISH084 -->
     <g transform="translate(511.007294 320.472042) scale(0.08 -0.08)">
      <defs>
       <path id="DejaVuSans-49" d="M 628 4666 
L 1259 4666 
L 1259 0 
L 628 0 
L 628 4666 
z
" transform="scale(0.015625)"/>
       <path id="DejaVuSans-54" d="M -19 4666 
L 3928 4666 
L 3928 4134 
L 2272 4134 
L 2272 0 
L 1638 0 
L 1638 4134 
L -19 4134 
L -19 4666 
z
" transform="scale(0.015625)"/>
      </defs>
      <use xlink:href="#DejaVuSans-4e"/>
      <use xlink:href="#DejaVuSans-49" transform="translate(74.804688 0)"/>
      <use xlink:href="#DejaVuSans-54" transform="translate(104.296875 0)"/>
      <use xlink:href="#DejaVuSans-49" transform="translate(165.380859 0)"/>
      <use xlink:href="#DejaVuSans-53" transform="translate(194.873047 0)"/>
      <use xlink:href="#DejaVuSans-48" transform="translate(258.349609 0)"/>
      <use xlink:href="#DejaVuSans-30" transform="translate(333.544922 0)"/>
      <use xlink:href="#DejaVuSans-38" transform="translate(397.167969 0)"/>
      <use xlink:href="#DejaVuSans-34" transform="translate(460.791016 0)"/>
     </g>
    </g>
   </g>
   <g id="text_16">
    <g clip-path="url(#p7261e925cc)">
     <!-- mon4our -->
     <g transform="translate(399.414612 300.030006) scale(0.08 -0.08)">
      <use xlink:href="#DejaVuSans-6d"/>
      <use xlink:href="#DejaVuSans-6f" transform="translate(97.412109 0)"/>
      <use xlink:href="#DejaVuSans-6e" transform="translate(158.59375 0)"/>
      <use xlink:href="#DejaVuSans-34" transform="translate(221.972656 0)"/>
      <use xlink:href="#DejaVuSans-6f" transform="translate(285.595703 0)"/>
      <use xlink:href="#DejaVuSans-75" transform="translate(346.777344 0)"/>
      <use xlink:href="#DejaVuSans-72" transform="translate(410.15625 0)"/>
     </g>
    </g>
   </g>
   <g id="text_17">
    <g clip-path="url(#p7261e925cc)">
     <!-- seanlip -->
     <g transform="translate(550.038105 274.520996) scale(0.08 -0.08)">
      <use xlink:href="#DejaVuSans-73"/>
      <use xlink:href="#DejaVuSans-65" transform="translate(52.099609 0)"/>
      <use xlink:href="#DejaVuSans-61" transform="translate(113.623047 0)"/>
      <use xlink:href="#DejaVuSans-6e" transform="translate(174.902344 0)"/>
      <use xlink:href="#DejaVuSans-6c" transform="translate(238.28125 0)"/>
      <use xlink:href="#DejaVuSans-69" transform="translate(266.064453 0)"/>
      <use xlink:href="#DejaVuSans-70" transform="translate(293.847656 0)"/>
     </g>
    </g>
   </g>
   <g id="text_18">
    <g clip-path="url(#p7261e925cc)">
     <!-- Helper2020 -->
     <g transform="translate(493.723521 282.441046) scale(0.08 -0.08)">
      <use xlink:href="#DejaVuSans-48"/>
      <use xlink:href="#DejaVuSans-65" transform="translate(75.195312 0)"/>
      <use xlink:href="#DejaVuSans-6c" transform="translate(136.71875 0)"/>
      <use xlink:href="#DejaVuSans-70" transform="translate(164.501953 0)"/>
      <use xlink:href="#DejaVuSans-65" transform="translate(227.978516 0)"/>
      <use xlink:href="#DejaVuSans-72" transform="translate(289.501953 0)"/>
      <use xlink:href="#DejaVuSans-32" transform="translate(330.615234 0)"/>
      <use xlink:href="#DejaVuSans-30" transform="translate(394.238281 0)"/>
      <use xlink:href="#DejaVuSans-32" transform="translate(457.861328 0)"/>
      <use xlink:href="#DejaVuSans-30" transform="translate(521.484375 0)"/>
     </g>
    </g>
   </g>
   <g id="text_19">
    <g clip-path="url(#p7261e925cc)">
     <!-- zakkib -->
     <g transform="translate(66.998481 336.374574) scale(0.08 -0.08)">
      <defs>
       <path id="DejaVuSans-7a" d="M 353 3500 
L 3084 3500 
L 3084 2975 
L 922 459 
L 3084 459 
L 3084 0 
L 275 0 
L 275 525 
L 2438 3041 
L 353 3041 
L 353 3500 
z
" transform="scale(0.015625)"/>
      </defs>
      <use xlink:href="#DejaVuSans-7a"/>
      <use xlink:href="#DejaVuSans-61" transform="translate(52.490234 0)"/>
      <use xlink:href="#DejaVuSans-6b" transform="translate(113.769531 0)"/>
      <use xlink:href="#DejaVuSans-6b" transform="translate(171.679688 0)"/>
      <use xlink:href="#DejaVuSans-69" transform="translate(229.589844 0)"/>
      <use xlink:href="#DejaVuSans-62" transform="translate(257.373047 0)"/>
     </g>
    </g>
   </g>
   <g id="text_20">
    <!-- GitHub Collaboration Network (Node size = weighted degree, Edge width = collaboration strength) -->
    <g transform="translate(128.2875 16.318125) scale(0.12 -0.12)">
     <defs>
      <path id="DejaVuSans-20" transform="scale(0.015625)"/>
      <path id="DejaVuSans-43" d="M 4122 4306 
L 4122 3641 
Q 3803 3938 3442 4084 
Q 3081 4231 2675 4231 
Q 1875 4231 1450 3742 
Q 1025 3253 1025 2328 
Q 1025 1406 1450 917 
Q 1875 428 2675 428 
Q 3081 428 3442 575 
Q 3803 722 4122 1019 
L 4122 359 
Q 3791 134 3420 21 
Q 3050 -91 2638 -91 
Q 1578 -91 968 557 
Q 359 1206 359 2328 
Q 359 3453 968 4101 
Q 1578 4750 2638 4750 
Q 3056 4750 3426 4639 
Q 3797 4528 4122 4306 
z
" transform="scale(0.015625)"/>
      <path id="DejaVuSans-77" d="M 269 3500 
L 844 3500 
L 1563 769 
L 2278 3500 
L 2956 3500 
L 3675 769 
L 4391 3500 
L 4966 3500 
L 4050 0 
L 3372 0 
L 2619 2869 
L 1863 0 
L 1184 0 
L 269 3500 
z
" transform="scale(0.015625)"/>
      <path id="DejaVuSans-28" d="M 1984 4856 
Q 1566 4138 1362 3434 
Q 1159 2731 1159 2009 
Q 1159 1288 1364 580 
Q 1569 -128 1984 -844 
L 1484 -844 
Q 1016 -109 783 600 
Q 550 1309 550 2009 
Q 550 2706 781 3412 
Q 1013 4119 1484 4856 
L 1984 4856 
z
" transform="scale(0.015625)"/>
      <path id="DejaVuSans-3d" d="M 678 2906 
L 4684 2906 
L 4684 2381 
L 678 2381 
L 678 2906 
z
M 678 1631 
L 4684 1631 
L 4684 1100 
L 678 1100 
L 678 1631 
z
" transform="scale(0.015625)"/>
      <path id="DejaVuSans-2c" d="M 750 794 
L 1409 794 
L 1409 256 
L 897 -744 
L 494 -744 
L 750 256 
L 750 794 
z
" transform="scale(0.015625)"/>
      <path id="DejaVuSans-45" d="M 628 4666 
L 3578 4666 
L 3578 4134 
L 1259 4134 
L 1259 2753 
L 3481 2753 
L 3481 2222 
L 1259 2222 
L 1259 531 
L 3634 531 
L 3634 0 
L 628 0 
L 628 4666 
z
" transform="scale(0.015625)"/>
      <path id="DejaVuSans-29" d="M 513 4856 
L 1013 4856 
Q 1481 4119 1714 3412 
Q 1947 2706 1947 2009 
Q 1947 1309 1714 600 
Q 1481 -109 1013 -844 
L 513 -844 
Q 928 -128 1133 580 
Q 1338 1288 1338 2009 
Q 1338 2731 1133 3434 
Q 928 4138 513 4856 
z
" transform="scale(0.015625)"/>
     </defs>
     <use xlink:href="#DejaVuSans-47"/>
     <use xlink:href="#DejaVuSans-69" transform="translate(77.490234 0)"/>
     <use xlink:href="#DejaVuSans-74" transform="translate(105.273438 0)"/>
     <use xlink:href="#DejaVuSans-48" transform="translate(144.482422 0)"/>
     <use xlink:href="#DejaVuSans-75" transform="translate(219.677734 0)"/>
     <use xlink:href="#DejaVuSans-62" transform="translate(283.056641 0)"/>
     <use xlink:href="#DejaVuSans-20" transform="translate(346.533203 0)"/>
     <use xlink:href="#DejaVuSans-43" transform="translate(378.320312 0)"/>
     <use xlink:href="#DejaVuSans-6f" transform="translate(448.144531 0)"/>
     <use xlink:href="#DejaVuSans-6c" transform="translate(509.326172 0)"/>
     <use xlink:href="#DejaVuSans-6c" transform="translate(537.109375 0)"/>
     <use xlink:href="#DejaVuSans-61" transform="translate(564.892578 0)"/>
     <use xlink:href="#DejaVuSans-62" transform="translate(626.171875 0)"/>
     <use xlink:href="#DejaVuSans-6f" transform="translate(689.648438 0)"/>
     <use xlink:href="#DejaVuSans-72" transform="translate(750.830078 0)"/>
     <use xlink:href="#DejaVuSans-61" transform="translate(791.943359 0)"/>
     <use xlink:href="#DejaVuSans-74" transform="translate(853.222656 0)"/>
     <use xlink:href="#DejaVuSans-69" transform="translate(892.431641 0)"/>
     <use xlink:href="#DejaVuSans-6f" transform="translate(920.214844 0)"/>
     <use xlink:href="#DejaVuSans-6e" transform="translate(981.396484 0)"/>
     <use xlink:href="#DejaVuSans-20" transform="translate(1044.775391 0)"/>
     <use xlink:href="#DejaVuSans-4e" transform="translate(1076.5625 0)"/>
     <use xlink:href="#DejaVuSans-65" transform="translate(1151.367188 0)"/>
     <use xlink:href="#DejaVuSans-74" transform="translate(1212.890625 0)"/>
     <use xlink:href="#DejaVuSans-77" transform="translate(1252.099609 0)"/>
     <use xlink:href="#DejaVuSans-6f" transform="translate(1333.886719 0)"/>
     <use xlink:href="#DejaVuSans-72" transform="translate(1395.068359 0)"/>
     <use xlink:href="#DejaVuSans-6b" transform="translate(1436.181641 0)"/>
     <use xlink:href="#DejaVuSans-20" transform="translate(1494.091797 0)"/>
     <use xlink:href="#DejaVuSans-28" transform="translate(1525.878906 0)"/>
     <use xlink:href="#DejaVuSans-4e" transform="translate(1564.892578 0)"/>
     <use xlink:href="#DejaVuSans-6f" transform="translate(1639.697266 0)"/>
     <use xlink:href="#DejaVuSans-64" transform="translate(1700.878906 0)"/>
     <use xlink:href="#DejaVuSans-65" transform="translate(1764.355469 0)"/>
     <use xlink:href="#DejaVuSans-20" transform="translate(1825.878906 0)"/>
     <use xlink:href="#DejaVuSans-73" transform="translate(1857.666016 0)"/>
     <use xlink:href="#DejaVuSans-69" transform="translate(1909.765625 0)"/>
     <use xlink:href="#DejaVuSans-7a" transform="translate(1937.548828 0)"/>
     <use xlink:href="#DejaVuSans-65" transform="translate(1990.039062 0)"/>
     <use xlink:href="#DejaVuSans-20" transform="translate(2051.5625 0)"/>
     <use xlink:href="#DejaVuSans-3d" transform="translate(2083.349609 0)"/>
     <use xlink:href="#DejaVuSans-20" transform="translate(2167.138672 0)"/>
     <use xlink:href="#DejaVuSans-77" transform="translate(2198.925781 0)"/>
     <use xlink:href="#DejaVuSans-65" transform="translate(2280.712891 0)"/>
     <use xlink:href="#DejaVuSans-69" transform="translate(2342.236328 0)"/>
     <use xlink:href="#DejaVuSans-67" transform="translate(2370.019531 0)"/>
     <use xlink:href="#DejaVuSans-68" transform="translate(2433.496094 0)"/>
     <use xlink:href="#DejaVuSans-74" transform="translate(2496.875 0)"/>
     <use xlink:href="#DejaVuSans-65" transform="translate(2536.083984 0)"/>
     <use xlink:href="#DejaVuSans-64" transform="translate(2597.607422 0)"/>
     <use xlink:href="#DejaVuSans-20" transform="translate(2661.083984 0)"/>
     <use xlink:href="#DejaVuSans-64" transform="translate(2692.871094 0)"/>
     <use xlink:href="#DejaVuSans-65" transform="translate(2756.347656 0)"/>
     <use xlink:href="#DejaVuSans-67" transform="translate(2817.871094 0)"/>
     <use xlink:href="#DejaVuSans-72" transform="translate(2881.347656 0)"/>
     <use xlink:href="#DejaVuSans-65" transform="translate(2920.210938 0)"/>
     <use xlink:href="#DejaVuSans-65" transform="translate(2981.734375 0)"/>
     <use xlink:href="#DejaVuSans-2c" transform="translate(3043.257812 0)"/>
     <use xlink:href="#DejaVuSans-20" transform="translate(3075.044922 0)"/>
     <use xlink:href="#DejaVuSans-45" transform="translate(3106.832031 0)"/>
     <use xlink:href="#DejaVuSans-64" transform="translate(3170.015625 0)"/>
     <use xlink:href="#DejaVuSans-67" transform="translate(3233.492188 0)"/>
     <use xlink:href="#DejaVuSans-65" transform="translate(3296.96875 0)"/>
     <use xlink:href="#DejaVuSans-20" transform="translate(3358.492188 0)"/>
     <use xlink:href="#DejaVuSans-77" transform="translate(3390.279297 0)"/>
     <use xlink:href="#DejaVuSans-69" transform="translate(3472.066406 0)"/>
     <use xlink:href="#DejaVuSans-64" transform="translate(3499.849609 0)"/>
     <use xlink:href="#DejaVuSans-74" transform="translate(3563.326172 0)"/>
     <use xlink:href="#DejaVuSans-68" transform="translate(3602.535156 0)"/>
     <use xlink:href="#DejaVuSans-20" transform="translate(3665.914062 0)"/>
     <use xlink:href="#DejaVuSans-3d" transform="translate(3697.701172 0)"/>
     <use xlink:href="#DejaVuSans-20" transform="translate(3781.490234 0)"/>
     <use xlink:href="#DejaVuSans-63" transform="translate(3813.277344 0)"/>
     <use xlink:href="#DejaVuSans-6f" transform="translate(3868.257812 0)"/>
     <use xlink:href="#DejaVuSans-6c" transform="translate(3929.439453 0)"/>
     <use xlink:href="#DejaVuSans-6c" transform="translate(3957.222656 0)"/>
     <use xlink:href="#DejaVuSans-61" transform="translate(3985.005859 0)"/>
     <use xlink:href="#DejaVuSans-62" transform="translate(4046.285156 0)"/>
     <use xlink:href="#DejaVuSans-6f" transform="translate(4109.761719 0)"/>
     <use xlink:href="#DejaVuSans-72" transform="translate(4170.943359 0)"/>
     <use xlink:href="#DejaVuSans-61" transform="translate(4212.056641 0)"/>
     <use xlink:href="#DejaVuSans-74" transform="translate(4273.335938 0)"/>
     <use xlink:href="#DejaVuSans-69" transform="translate(4312.544922 0)"/>
     <use xlink:href="#DejaVuSans-6f" transform="translate(4340.328125 0)"/>
     <use xlink:href="#DejaVuSans-6e" transform="translate(4401.509766 0)"/>
     <use xlink:href="#DejaVuSans-20" transform="translate(4464.888672 0)"/>
     <use xlink:href="#DejaVuSans-73" transform="translate(4496.675781 0)"/>
     <use xlink:href="#DejaVuSans-74" transform="translate(4548.775391 0)"/>
     <use xlink:href="#DejaVuSans-72" transform="translate(4587.984375 0)"/>
     <use xlink:href="#DejaVuSans-65" transform="translate(4626.847656 0)"/>
     <use xlink:href="#DejaVuSans-6e" transform="translate(4688.371094 0)"/>
     <use xlink:href="#DejaVuSans-67" transform="translate(4751.75 0)"/>
     <use xlink:href="#DejaVuSans-74" transform="translate(4815.226562 0)"/>
     <use xlink:href="#DejaVuSans-68" transform="translate(4854.435547 0)"/>
     <use xlink:href="#DejaVuSans-29" transform="translate(4917.814453 0)"/>
    </g>
   </g>
  </g>
 </g>
 <defs>
  <clipPath id="p7261e925cc">
   <rect x="7.2" y="22.318125" width="837" height="554.4"/>
  </clipPath>
 </defs>
</svg>
